<?xml version="1.0" encoding="UTF-8" standalone="no"?>
<svg
   xmlns:dc="http://purl.org/dc/elements/1.1/"
   xmlns:cc="http://creativecommons.org/ns#"
   xmlns:rdf="http://www.w3.org/1999/02/22-rdf-syntax-ns#"
   xmlns:svg="http://www.w3.org/2000/svg"
   xmlns="http://www.w3.org/2000/svg"
   xmlns:sodipodi="http://sodipodi.sourceforge.net/DTD/sodipodi-0.dtd"
   xmlns:inkscape="http://www.inkscape.org/namespaces/inkscape"
   width="8.5cm"
   height="7cm"
   viewBox="0 0 85 69.999996"
   version="1.1"
   id="svg8"
   inkscape:version="1.0.1 (3bc2e813f5, 2020-09-07)"
   sodipodi:docname="gsheetah.svg">
  <defs
     id="defs2">
    <rect
       x="74.088951"
       y="172.9458"
       width="73.97506"
       height="36.434917"
       id="rect1163" />
    <inkscape:path-effect
       effect="bspline"
       id="path-effect1159"
       is_visible="true"
       lpeversion="1"
       weight="33.333333"
       steps="2"
       helper_size="0"
       apply_no_weight="true"
       apply_with_weight="true"
       only_selected="false" />
    <inkscape:path-effect
       effect="bspline"
       id="path-effect1155"
       is_visible="true"
       lpeversion="1"
       weight="33.333333"
       steps="2"
       helper_size="0"
       apply_no_weight="true"
       apply_with_weight="true"
       only_selected="false" />
    <inkscape:path-effect
       effect="bspline"
       id="path-effect985"
       is_visible="true"
       lpeversion="1"
       weight="33.333333"
       steps="2"
       helper_size="0"
       apply_no_weight="true"
       apply_with_weight="true"
       only_selected="false" />
    <inkscape:path-effect
       effect="bspline"
       id="path-effect979"
       is_visible="true"
       lpeversion="1"
       weight="33.333333"
       steps="2"
       helper_size="0"
       apply_no_weight="true"
       apply_with_weight="true"
       only_selected="false" />
    <inkscape:path-effect
       effect="bspline"
       id="path-effect973"
       is_visible="true"
       lpeversion="1"
       weight="33.333333"
       steps="2"
       helper_size="0"
       apply_no_weight="true"
       apply_with_weight="true"
       only_selected="false" />
    <inkscape:path-effect
       effect="bspline"
       id="path-effect969"
       is_visible="true"
       lpeversion="1"
       weight="33.333333"
       steps="2"
       helper_size="0"
       apply_no_weight="true"
       apply_with_weight="true"
       only_selected="false" />
    <inkscape:path-effect
       effect="bspline"
       id="path-effect965"
       is_visible="true"
       lpeversion="1"
       weight="33.333333"
       steps="2"
       helper_size="0"
       apply_no_weight="true"
       apply_with_weight="true"
       only_selected="false" />
    <inkscape:path-effect
       effect="bspline"
       id="path-effect961"
       is_visible="true"
       lpeversion="1"
       weight="33.333333"
       steps="2"
       helper_size="0"
       apply_no_weight="true"
       apply_with_weight="true"
       only_selected="false" />
    <inkscape:path-effect
       effect="bspline"
       id="path-effect957"
       is_visible="true"
       lpeversion="1"
       weight="33.333333"
       steps="2"
       helper_size="0"
       apply_no_weight="true"
       apply_with_weight="true"
       only_selected="false" />
    <inkscape:path-effect
       effect="bspline"
       id="path-effect953"
       is_visible="true"
       lpeversion="1"
       weight="33.333333"
       steps="2"
       helper_size="0"
       apply_no_weight="true"
       apply_with_weight="true"
       only_selected="false" />
    <inkscape:path-effect
       effect="bspline"
       id="path-effect949"
       is_visible="true"
       lpeversion="1"
       weight="33.333333"
       steps="2"
       helper_size="0"
       apply_no_weight="true"
       apply_with_weight="true"
       only_selected="false" />
    <inkscape:path-effect
       effect="bspline"
       id="path-effect945"
       is_visible="true"
       lpeversion="1"
       weight="33.333333"
       steps="2"
       helper_size="0"
       apply_no_weight="true"
       apply_with_weight="true"
       only_selected="false" />
    <inkscape:path-effect
       effect="bspline"
       id="path-effect941"
       is_visible="true"
       lpeversion="1"
       weight="33.333333"
       steps="2"
       helper_size="0"
       apply_no_weight="true"
       apply_with_weight="true"
       only_selected="false" />
    <inkscape:path-effect
       effect="bspline"
       id="path-effect937"
       is_visible="true"
       lpeversion="1"
       weight="33.333333"
       steps="2"
       helper_size="0"
       apply_no_weight="true"
       apply_with_weight="true"
       only_selected="false" />
    <inkscape:path-effect
       effect="bspline"
       id="path-effect933"
       is_visible="true"
       lpeversion="1"
       weight="33.333333"
       steps="2"
       helper_size="0"
       apply_no_weight="true"
       apply_with_weight="true"
       only_selected="false" />
    <inkscape:path-effect
       effect="bspline"
       id="path-effect929"
       is_visible="true"
       lpeversion="1"
       weight="33.333333"
       steps="2"
       helper_size="0"
       apply_no_weight="true"
       apply_with_weight="true"
       only_selected="false" />
    <inkscape:path-effect
       effect="bspline"
       id="path-effect925"
       is_visible="true"
       lpeversion="1"
       weight="33.333333"
       steps="2"
       helper_size="0"
       apply_no_weight="true"
       apply_with_weight="true"
       only_selected="false" />
    <inkscape:path-effect
       effect="bspline"
       id="path-effect921"
       is_visible="true"
       lpeversion="1"
       weight="33.333333"
       steps="2"
       helper_size="0"
       apply_no_weight="true"
       apply_with_weight="true"
       only_selected="false" />
    <inkscape:path-effect
       effect="bspline"
       id="path-effect917"
       is_visible="true"
       lpeversion="1"
       weight="33.333333"
       steps="2"
       helper_size="0"
       apply_no_weight="true"
       apply_with_weight="true"
       only_selected="false" />
    <inkscape:path-effect
       effect="bspline"
       id="path-effect913"
       is_visible="true"
       lpeversion="1"
       weight="33.333333"
       steps="2"
       helper_size="0"
       apply_no_weight="true"
       apply_with_weight="true"
       only_selected="false" />
    <inkscape:path-effect
       effect="bspline"
       id="path-effect909"
       is_visible="true"
       lpeversion="1"
       weight="33.333333"
       steps="2"
       helper_size="0"
       apply_no_weight="true"
       apply_with_weight="true"
       only_selected="false" />
    <inkscape:path-effect
       effect="bspline"
       id="path-effect905"
       is_visible="true"
       lpeversion="1"
       weight="33.333333"
       steps="2"
       helper_size="0"
       apply_no_weight="true"
       apply_with_weight="true"
       only_selected="false" />
    <inkscape:path-effect
       effect="bspline"
       id="path-effect901"
       is_visible="true"
       lpeversion="1"
       weight="33.333333"
       steps="2"
       helper_size="0"
       apply_no_weight="true"
       apply_with_weight="true"
       only_selected="false" />
  </defs>
  <sodipodi:namedview
     id="base"
     pagecolor="#ffffff"
     bordercolor="#666666"
     borderopacity="1.0"
     inkscape:pageopacity="0.0"
     inkscape:pageshadow="2"
     inkscape:zoom="0.98994949"
     inkscape:cx="203.36471"
     inkscape:cy="271.96518"
     inkscape:document-units="mm"
     inkscape:current-layer="layer1"
     inkscape:document-rotation="0"
     showgrid="false"
     inkscape:snap-global="false"
     units="cm"
     inkscape:window-width="1326"
     inkscape:window-height="959"
     inkscape:window-x="0"
     inkscape:window-y="0"
     inkscape:window-maximized="0" />
  <metadata
     id="metadata5">
    <rdf:RDF>
      <cc:Work
         rdf:about="">
        <dc:format>image/svg+xml</dc:format>
        <dc:type
           rdf:resource="http://purl.org/dc/dcmitype/StillImage" />
        <dc:title></dc:title>
      </cc:Work>
    </rdf:RDF>
  </metadata>
  <g
     inkscape:label="Layer 1"
     inkscape:groupmode="layer"
     id="layer1">
    <g
       id="g1261"
       transform="matrix(1.1890146,0,0,1.1890146,-82.436616,-141.1711)">
      <path
         style="fill:#008000;stroke:#000000;stroke-width:0.264583px;stroke-linecap:butt;stroke-linejoin:miter;stroke-opacity:1"
         d="m 120.42583,129.32768 c 1.80267,0.28543 4.9468,1.29574 7.57521,2.41234 2.6284,1.11659 4.74101,2.33936 6.50853,3.57494 1.76753,1.23559 3.18995,2.48387 4.0936,3.59925 0.90366,1.11539 1.2887,2.09777 1.25584,2.94212 -0.0329,0.84434 -0.48354,1.55087 -1.11985,1.73484 -0.63631,0.18397 -1.45855,-0.15477 -2.90901,-1.05325 -1.45045,-0.89848 -3.52899,-2.35671 -5.14509,-3.31405 -1.6161,-0.95734 -2.76972,-1.41366 -3.57846,-1.87186 -0.80874,-0.4582 -1.27246,-0.91839 -2.08039,-1.32838 -0.80793,-0.40999 -1.96012,-0.76963 -3.23836,-1.77818 -1.27823,-1.00854 -2.6823,-2.66606 -3.15395,-3.71483 -0.47166,-1.04876 -0.0107,-1.48837 1.79193,-1.20294 z"
         id="path915"
         inkscape:path-effect="#path-effect917"
         inkscape:original-d="m 119.08403,128.6027 c 3.14445,1.01049 6.28858,2.02079 9.43239,3.03091 2.11302,1.223 4.22563,2.44577 6.33796,3.66838 1.42277,1.2485 2.84518,2.49679 4.26728,3.74489 0.38539,0.98263 0.77043,1.96502 1.15516,2.94725 -0.45036,0.70674 -0.90103,1.41327 -1.35203,2.11962 -0.82196,-0.33857 -1.6442,-0.6773 -2.46679,-1.01624 -2.07828,-1.4581 -4.15682,-2.91633 -6.23571,-4.37477 -1.15335,-0.45616 -2.30697,-0.91248 -3.46095,-1.369 -0.46341,-0.46 -0.92714,-0.92018 -1.39119,-1.38056 -1.1519,-0.35946 -2.30409,-0.7191 -3.45662,-1.07894 -1.40381,-1.65741 -2.80789,-3.31493 -4.21231,-4.97268 0.46127,-0.43944 0.92219,-0.87905 1.38281,-1.31886 z" />
      <path
         style="fill:#008000;stroke:#000000;stroke-width:0.264583px;stroke-linecap:butt;stroke-linejoin:miter;stroke-opacity:1"
         d="m 104.99794,146.86569 c 0.0989,-0.0157 0.29641,-0.047 0.86292,0.0209 0.56651,0.0678 1.50187,0.23469 2.19027,0.70413 0.68841,0.46944 1.12994,1.24116 1.66739,2.01029 0.53744,0.76912 1.1707,1.53563 1.84469,2.10656 0.67398,0.57092 1.38858,0.94636 1.95207,1.4731 0.56349,0.52674 0.97598,1.2046 1.58023,2.04152 0.60425,0.83692 1.40018,1.83285 1.80385,2.7871 0.40368,0.95424 0.41531,1.86675 -0.30786,2.02572 -0.72317,0.15896 -2.18141,-0.43547 -3.32015,-1.01424 -1.13874,-0.57878 -1.9579,-1.14192 -2.53895,-1.71025 -0.58104,-0.56833 -0.92381,-1.14191 -2.05668,-1.71822 -1.13287,-0.57631 -3.05588,-1.1551 -4.20635,-2.36477 -1.15047,-1.20966 -1.5281,-3.05033 -1.32765,-4.21333 0.20045,-1.163 0.97895,-1.64793 1.36817,-1.89038 0.38922,-0.24245 0.38918,-0.24242 0.48805,-0.25809 z"
         id="path923"
         inkscape:path-effect="#path-effect925"
         inkscape:original-d="m 104.89907,146.88136 c 0.1978,-0.031 0.39533,-0.0623 0.5926,-0.0939 0.93566,0.16713 1.87102,0.33399 2.80614,0.50059 0.44182,0.77202 0.88335,1.54374 1.32463,2.31522 0.63355,0.7668 1.26681,1.53331 1.89982,2.29957 0.71488,0.37571 1.42948,0.75114 2.14382,1.12632 0.41277,0.67816 0.82526,1.35602 1.23749,2.03364 0.79623,0.99624 1.59215,1.99218 2.38783,2.98787 0.0119,0.91282 0.0235,1.82533 0.0349,2.73759 -1.45803,-0.59419 -2.91626,-1.18863 -4.37479,-1.78334 -0.81894,-0.56291 -1.6381,-1.12606 -2.45755,-1.68948 -0.34252,-0.57334 -0.6853,-1.14691 -1.02834,-1.72077 -1.92282,-0.57855 -3.84583,-1.15734 -5.76914,-1.73641 -0.37738,-1.84047 -0.75501,-3.68114 -1.13291,-5.5221 0.77879,-0.48469 1.55729,-0.96963 2.33554,-1.45483 z" />
      <path
         style="fill:#008000;stroke:#000000;stroke-width:0.264583px;stroke-linecap:butt;stroke-linejoin:miter;stroke-opacity:1"
         d="m 82.091216,166.82654 c -0.595358,-0.46658 -1.786371,-1.39996 -2.654947,-2.0987 -0.868575,-0.69873 -1.414688,-1.16281 -1.899883,-1.87195 -0.485195,-0.70914 -0.909301,-1.66336 -1.377014,-2.91745 -0.467713,-1.25409 -0.978968,-2.80797 -1.43214,-4.2237 -0.453173,-1.41574 -0.848234,-2.69326 -0.563621,-4.6175 0.284612,-1.92424 1.249017,-4.49491 2.28329,-5.93681 1.034272,-1.44189 2.138119,-1.75475 3.047426,-1.85117 0.909307,-0.0964 1.623903,0.0235 2.233922,0.32084 0.61002,0.29733 1.115465,0.77184 1.347707,1.18377 0.232243,0.41194 0.191575,0.7613 -0.183174,1.5095 -0.374749,0.74821 -1.083529,1.89536 -1.725521,3.00085 -0.641993,1.10548 -1.217154,2.16921 -1.501806,2.92801 -0.284653,0.75879 -0.27884,1.21244 0.05245,1.78865 0.331293,0.5762 0.98779,1.27492 1.362423,1.88242 0.374633,0.60751 0.467586,1.12373 0.476248,1.51736 0.0087,0.39363 -0.06686,0.66478 0.220832,1.45746 0.287696,0.79267 0.938384,2.10669 1.205528,2.94875 0.267144,0.84206 0.15095,1.21228 0.03767,2.04143 -0.113276,0.82915 -0.223661,2.11709 -0.334027,3.40482 0,0 0,0 0,0 0,0 0,0 0,0 0,0 -1.2e-5,0 -0.59537,-0.46658 z"
         id="path903"
         inkscape:path-effect="#path-effect905"
         inkscape:original-d="m 82.686574,167.29312 c -1.190744,-0.93312 -2.381756,-1.86651 -3.573031,-2.80016 -0.54587,-0.46383 -1.091981,-0.92791 -1.638369,-1.39226 -0.42386,-0.954 -0.847966,-1.90822 -1.272347,-2.86273 -0.511008,-1.55367 -1.022263,-3.10755 -1.53379,-4.66172 -0.394811,-1.2773 -0.789871,-2.55482 -1.185203,-3.83262 0.964708,-2.57051 1.929114,-5.14118 2.893274,-7.71217 1.104154,-0.31261 2.208001,-0.62547 3.311604,-0.9386 0.714886,0.1202 1.429481,0.24013 2.143821,0.35979 0.505727,0.47479 1.011171,0.9493 1.516362,1.42355 -0.0404,0.34964 -0.08107,0.699 -0.122005,1.0481 -0.708546,1.14747 -1.417331,2.29462 -2.12639,3.44154 -0.574919,1.06403 -1.15008,2.12776 -1.725515,3.19125 0.0061,0.45393 0.01188,0.90758 0.01744,1.36097 0.656786,0.69901 1.313283,1.39773 1.969527,2.0962 0.09322,0.51651 0.186177,1.03273 0.278868,1.5487 -0.07526,0.27142 -0.150789,0.54257 -0.226581,0.81345 0.650978,1.31433 1.301663,2.62835 1.952096,3.94212 -0.115933,0.3705 -0.232127,0.74072 -0.348589,1.11068 -0.110125,1.28826 -0.220509,2.5762 -0.33116,3.86391 0,0 2.64e-4,2.6e-4 0,0 0,0 2.64e-4,2.6e-4 0,0 z" />
      <path
         style="fill:#008000;stroke:#000000;stroke-width:0.264583px;stroke-linecap:butt;stroke-linejoin:miter;stroke-opacity:1"
         d="m 77.122626,125.25718 c 1.243328,-0.86301 3.729926,-2.58899 5.278375,-3.38675 1.548449,-0.79776 2.158468,-0.6674 3.329114,-0.7535 1.170646,-0.0861 2.901936,-0.38852 4.278923,-0.29978 1.376988,0.0888 2.399496,0.56847 3.195369,1.35073 0.795873,0.78226 1.365227,1.86685 1.905592,2.66986 0.540366,0.803 1.051617,1.32443 1.716852,1.59546 0.665236,0.27102 1.484405,0.29189 3.384239,0.26321 1.89983,-0.0287 4.8802,-0.1069 6.97743,-0.71961 2.09723,-0.61271 3.31146,-1.75986 4.22663,-2.36475 0.91516,-0.60488 1.53099,-0.66745 2.32109,-0.88387 0.7901,-0.21642 1.7545,-0.58664 2.84394,-0.46659 1.08944,0.12004 2.30367,0.73012 3.28546,1.71053 0.9818,0.9804 1.73125,2.33092 2.42843,3.63976 0.69717,1.30884 1.34204,2.57592 1.9346,4.73995 0.59255,2.16402 1.13285,5.22484 1.65575,7.83991 0.5229,2.61508 1.02834,4.78424 1.48151,6.65103 0.45318,1.86679 0.85405,3.4311 1.45543,4.84161 0.60138,1.41052 1.40313,2.66718 2.35889,3.78827 0.95577,1.12108 2.06541,2.10659 2.73638,2.84708 0.67098,0.74049 0.90337,1.23586 1.14442,2.2944 0.24106,1.05853 0.49088,2.6802 0.75525,3.97862 0.26436,1.29841 0.54323,2.2735 0.73783,3.31117 0.1946,1.03767 0.30498,2.1379 0.36016,3.4702 0.0552,1.33229 0.0552,2.89659 -0.17125,3.60828 -0.22643,0.71169 -0.67958,0.57091 -1.12697,0.50827 -0.44739,-0.0626 -0.88893,-0.047 -1.29272,-0.26064 -0.4038,-0.21366 -0.76981,-0.65687 -0.99939,-1.11053 -0.22957,-0.45365 -0.32253,-0.91773 -0.5549,-1.70772 -0.23237,-0.79 -0.60419,-1.90587 -1.04866,-3.44936 -0.44446,-1.5435 -0.96152,-3.51452 -1.62084,-4.8234 -0.65933,-1.30887 -1.46107,-1.95545 -2.84671,-2.68032 -1.38565,-0.72486 -3.35514,-1.52787 -4.72631,-2.48987 -1.37118,-0.96199 -2.14387,-2.08308 -2.90499,-3.39191 -0.76111,-1.30884 -1.51056,-2.80535 -2.71894,-3.82488 -1.20838,-1.01954 -2.87577,-1.56183 -4.16558,-2.25268 -1.2898,-0.69085 -2.20193,-1.53036 -2.87881,-1.91116 -0.67688,-0.3808 -1.11841,-0.30258 -1.80117,0.12762 -0.68275,0.43021 -1.60649,1.21236 -2.44315,2.27618 -0.83666,1.06381 -1.5861,2.40912 -3.04716,3.26944 -1.46106,0.86033 -3.633894,1.23576 -6.033326,1.1654 -2.399432,-0.0703 -5.025413,-0.58657 -7.282589,-2.1847 -2.257177,-1.59814 -4.145331,-4.27831 -6.0335,-6.385 -1.88817,-2.10668 -3.776323,-3.6397 -5.118515,-6.58588 -1.342191,-2.94617 -2.138119,-7.30536 -2.417042,-9.73279 -0.278922,-2.42742 -0.04073,-2.92278 0.0784,-3.17053 0.119128,-0.24774 0.119128,-0.24775 1.362456,-1.11076 z"
         id="path907"
         inkscape:path-effect="#path-effect909"
         inkscape:original-d="m 75.879298,126.12019 c 2.486866,-1.72572 4.973465,-3.4517 7.459802,-5.17795 0.610307,0.13063 1.220325,0.26099 1.830089,0.39108 1.731624,-0.30218 3.462914,-0.60461 5.193974,-0.90731 1.022811,0.48 2.045319,0.95972 3.067579,1.43919 0.569638,1.08489 1.138989,2.16948 1.708087,3.25382 0.511537,0.52172 1.022789,1.04315 1.533789,1.56433 0.819463,0.0211 1.638631,0.042 2.457548,0.0626 2.980764,-0.078 5.961134,-0.15617 8.941304,-0.23465 1.21454,-1.14693 2.42877,-2.29409 3.64275,-3.44153 0.61612,-0.0623 1.23195,-0.12489 1.84752,-0.18772 0.96472,-0.36997 1.92912,-0.74019 2.89329,-1.11068 1.21454,0.61036 2.42877,1.22044 3.64275,1.83027 0.74975,1.35083 1.4992,2.70135 2.2484,4.05163 0.64517,1.2674 1.29004,2.53448 1.93466,3.80133 0.54059,3.06121 1.0809,6.12203 1.62094,9.18265 0.50573,2.16952 1.01118,4.33868 1.51636,6.50763 0.40115,1.56463 0.80202,3.12894 1.20264,4.69301 0.80203,1.25697 1.60377,2.51363 2.40526,3.77004 1.10996,0.98582 2.21961,1.97133 3.32902,2.9566 0.23266,0.49564 0.46505,0.99101 0.69718,1.48611 0.25009,1.62199 0.49991,3.24366 0.74946,4.86509 0.27914,0.97538 0.55801,1.95047 0.83661,2.9253 0.11066,1.10054 0.22104,2.20077 0.33116,3.30075 2.7e-4,1.56463 2.7e-4,3.12893 0,4.693 -0.45291,-0.14053 -0.90606,-0.28131 -1.35949,-0.42236 -0.44129,0.0159 -0.88283,0.0315 -1.32464,0.0469 -0.36576,-0.44297 -0.73177,-0.88619 -1.09806,-1.32968 -0.0927,-0.46383 -0.18564,-0.92791 -0.27886,-1.39225 -0.37157,-1.11566 -0.74339,-2.23153 -1.11548,-3.34768 -0.51682,-1.97084 -1.03388,-3.94186 -1.55122,-5.91319 -0.80151,-0.64634 -1.60325,-1.29292 -2.40527,-1.93977 -1.9693,-0.80278 -3.93879,-1.60579 -5.90858,-2.40908 -0.77245,-1.12087 -1.54514,-2.24196 -2.31811,-3.36333 -0.74922,-1.49631 -1.49867,-2.99282 -2.2484,-4.48963 -1.66718,-0.54205 -3.33457,-1.08435 -5.00225,-1.62691 -0.91189,-0.83928 -1.82402,-1.67879 -2.73642,-2.51858 -0.44129,0.0785 -0.88283,0.1567 -1.32464,0.23465 -0.92351,0.78245 -1.84725,1.5646 -2.77128,2.3465 -0.74921,1.34562 -1.49866,2.69092 -2.24839,4.03599 -2.17265,0.37571 -4.345482,0.75114 -6.518616,1.12631 -2.625823,-0.51597 -5.251804,-1.03219 -7.878103,-1.54869 -1.887964,-2.68001 -3.776115,-5.36019 -5.664568,-8.04068 -1.887964,-1.53281 -3.776115,-3.06583 -5.664568,-4.59914 -0.795694,-4.35911 -1.591625,-8.7183 -2.387833,-13.07784 0.238472,-0.49512 0.476668,-0.99048 0.714606,-1.48612 z" />
      <path
         style="fill:#008000;stroke:#000000;stroke-width:0.264583px;stroke-linecap:butt;stroke-linejoin:miter;stroke-opacity:1"
         d="m 71.344718,132.35155 c 0.101647,-0.40142 0.304991,-1.20445 0.357319,-2.0335 0.05233,-0.82905 -0.04644,-1.6842 -0.06679,-2.60458 -0.02036,-0.92039 0.03774,-1.9059 0.255762,-2.38313 0.218023,-0.47723 0.595644,-0.44593 1.054611,-0.13553 0.458968,0.3104 0.999269,0.89962 2.181602,1.29058 1.182334,0.39097 3.006578,0.5839 4.424155,0.62558 1.417577,0.0417 2.428463,-0.0678 3.357965,-0.37809 0.929501,-0.31027 1.777715,-0.82127 2.504067,-0.98024 0.726352,-0.15896 1.330563,0.034 1.702265,0.46166 0.371702,0.42769 0.511135,1.08991 0.525605,1.69996 0.01447,0.61005 -0.09591,1.16798 -0.08715,1.85113 0.0088,0.68314 0.136573,1.49137 0.313786,2.3987 0.177212,0.90733 0.403788,1.91369 0.371774,2.68012 -0.03202,0.76642 -0.322499,1.29307 -0.764047,2.01527 -0.441548,0.72219 -1.034143,1.63992 -1.469888,2.44559 -0.435745,0.80568 -0.71461,1.49919 -1.437903,2.34647 -0.723293,0.84728 -1.891044,1.84844 -2.806065,2.54195 -0.915022,0.69351 -1.577327,1.07937 -2.474927,1.49391 -0.8976,0.41455 -2.030495,0.85778 -2.779966,0.65459 -0.749471,-0.20319 -1.115478,-1.05312 -1.594712,-1.69716 -0.479234,-0.64404 -1.071819,-1.08205 -1.461173,-1.57216 -0.389354,-0.49012 -0.575264,-1.03241 -0.607292,-1.6217 -0.03203,-0.5893 0.08998,-1.22545 -0.206226,-2.19269 -0.296201,-0.96724 -1.010793,-2.26561 -1.313002,-3.40502 -0.302208,-1.1394 -0.191824,-2.1197 -0.136617,-2.60998 0.05521,-0.49027 0.05521,-0.49031 0.156854,-0.89173 z"
         id="path911"
         inkscape:path-effect="#path-effect913"
         inkscape:original-d="m 71.24307,132.75297 c 0.203607,-0.80276 0.40695,-1.60579 0.610029,-2.40908 -0.09851,-0.85492 -0.197268,-1.71007 -0.296299,-2.56551 0.05836,-0.98528 0.116459,-1.97079 0.174294,-2.95659 0.37791,0.0316 0.755539,0.0628 1.132914,0.0939 0.540586,0.58951 1.080889,1.17873 1.620935,1.7677 1.824583,0.1932 3.648827,0.38613 5.472843,0.5788 1.011195,-0.10924 2.022081,-0.21874 3.032726,-0.32851 0.848513,-0.51076 1.696728,-1.02176 2.544696,-1.53304 0.604496,0.1932 1.208707,0.38613 1.81266,0.5788 0.139706,0.66251 0.279136,1.32473 0.418307,1.9867 -0.110123,0.55823 -0.220507,1.11616 -0.331158,1.67384 0.128082,0.80852 0.255894,1.61675 0.383445,2.42472 0.226853,1.00668 0.453429,2.01304 0.679749,3.01917 -0.290232,0.52693 -0.580716,1.05358 -0.871469,1.57998 -0.592349,0.91802 -1.184939,1.83575 -1.777807,2.75322 -0.278611,0.69381 -0.557474,1.38732 -0.83661,2.08057 -1.167532,1.00146 -2.335281,2.00262 -3.503319,3.00353 -0.662066,0.38614 -1.324371,0.772 -1.986954,1.1576 -1.132676,0.4435 -2.265572,0.88672 -3.398753,1.32969 -0.365757,-0.84971 -0.731763,-1.69965 -1.098042,-2.54987 -0.592349,-0.43776 -1.184936,-0.87576 -1.777802,-1.31404 -0.185652,-0.54205 -0.371565,-1.08434 -0.557741,-1.62691 0.122272,-0.63591 0.244274,-1.27206 0.366016,-1.90849 -0.714356,-1.29816 -1.428948,-2.59653 -2.14382,-3.89519 0.110654,-0.98007 0.221038,-1.96037 0.33116,-2.94095 z" />
      <path
         style="fill:none;stroke:#000000;stroke-width:0.264583px;stroke-linecap:butt;stroke-linejoin:miter;stroke-opacity:1"
         d="m 72.9197,142.11546 c 0.07257,-0.16935 0.145193,-0.33882 0.3529,-1.07404 0.207707,-0.73522 0.550478,-2.0362 0.732054,-2.98651 0.181575,-0.9503 0.201908,-1.54995 0.213528,-2.08052 0.01162,-0.53057 0.01452,-0.99204 -0.317947,-1.28546 -0.332468,-0.29341 -1.000585,-0.41856 -1.469884,-0.34297 -0.469299,0.0756 -0.739449,0.35195 -0.846859,0.55417 -0.10741,0.20221 -0.05222,0.32996 0.106031,0.2568 0.158249,-0.0732 0.419686,-0.34691 0.627456,-0.29721 0.20777,0.0497 0.361726,0.42252 0.521564,0.69234 0.159838,0.26982 0.325414,0.43668 0.551973,0.49259 0.226559,0.0559 0.514135,0.001 0.801513,-0.0536"
         id="path927"
         inkscape:path-effect="#path-effect929"
         inkscape:original-d="m 72.9197,142.11546 c 0.07289,-0.16921 0.14551,-0.33868 0.217869,-0.50841 0.343048,-1.30077 0.685821,-2.60175 1.028335,-3.90302 0.02061,-0.59941 0.04093,-1.19906 0.061,-1.79898 0.0032,-0.46123 0.0061,-0.9227 0.0087,-1.38444 -0.667877,-0.12488 -1.335993,-0.25003 -2.004386,-0.37544 -0.269896,0.27664 -0.540046,0.553 -0.810469,0.8291 0.05546,0.12802 0.110652,0.25577 0.165582,0.38326 0.26171,-0.2735 0.523147,-0.54725 0.784325,-0.82127 0.154226,0.3731 0.308184,0.74592 0.461878,1.11849 0.165849,0.16713 0.331425,0.33399 0.496739,0.50059 0.287857,-0.0545 0.575435,-0.10924 0.862756,-0.16425" />
      <path
         style="fill:#000000;stroke:#000000;stroke-width:0.264583px;stroke-linecap:butt;stroke-linejoin:miter;stroke-opacity:1"
         d="m 75.285156,143.53488 c -0.521271,-0.26716 -1.564136,-0.80164 -1.790795,-1.17458 -0.226659,-0.37294 0.363025,-0.58413 0.87288,-0.71708 0.509855,-0.13296 0.93977,-0.18771 1.391533,-0.10549 0.451762,0.0822 0.925251,0.30122 1.260606,0.29985 0.335355,-0.001 0.532886,-0.22298 0.666556,-0.18764 0.133669,0.0354 0.203385,0.32736 -0.0174,0.63874 -0.220784,0.31139 -0.732038,0.6425 -1.026946,0.90592 -0.294908,0.26342 -0.373339,0.45896 -0.476293,0.54887 -0.102955,0.0899 -0.230763,0.0743 -0.294817,0.0664 -0.06405,-0.008 -0.06405,-0.008 -0.585326,-0.27502 z"
         id="path931"
         inkscape:path-effect="#path-effect933"
         inkscape:original-d="m 75.806428,143.80204 c -1.042598,-0.53421 -2.085459,-1.0687 -3.128584,-1.60344 0.589971,-0.21093 1.179656,-0.42211 1.769089,-0.63356 0.430199,-0.0545 0.860115,-0.10924 1.289778,-0.16425 0.473773,0.21927 0.947263,0.43827 1.420497,0.65702 0.197803,-0.22136 0.395333,-0.44297 0.592603,-0.66484 0.06998,0.29228 0.1397,0.58428 0.209154,0.87602 -0.511011,0.33139 -1.022266,0.6625 -1.533793,0.99335 -0.07817,0.19581 -0.156601,0.39135 -0.235296,0.58663 -0.127556,-0.0154 -0.255368,-0.031 -0.383448,-0.0469 z" />
      <ellipse
         style="opacity:1;fill:#000000;stroke:#000000;stroke-width:0.165"
         id="path975"
         cx="73.78759"
         cy="135.14966"
         rx="0.41964671"
         ry="0.39385101" />
      <path
         style="fill:none;stroke:#000000;stroke-width:0.264583px;stroke-linecap:butt;stroke-linejoin:miter;stroke-opacity:1"
         d="m 78.038065,141.58888 c 0.0066,-0.18413 0.01323,-0.36838 0.139049,-1.12195 0.125813,-0.75357 0.370839,-2.07645 0.612045,-3.01339 0.241207,-0.93695 0.478646,-1.48796 0.694494,-1.97278 0.215848,-0.48482 0.4101,-0.90342 0.835972,-1.02696 0.425872,-0.12353 1.083525,0.0483 1.475725,0.31691 0.392199,0.26858 0.518626,0.63378 0.529503,0.86249 0.01088,0.22871 -0.09355,0.32071 -0.205466,0.18703 -0.111911,-0.13368 -0.231573,-0.49281 -0.440686,-0.5365 -0.209113,-0.0437 -0.507414,0.22782 -0.76709,0.40366 -0.259676,0.17584 -0.480613,0.25611 -0.70937,0.21002 -0.228756,-0.0461 -0.465492,-0.21831 -0.702061,-0.39039"
         id="path977"
         inkscape:path-effect="#path-effect979"
         inkscape:original-d="m 78.038065,141.58888 c 0.0063,-0.18414 0.01289,-0.36839 0.01986,-0.55277 0.244686,-1.32281 0.48971,-2.64569 0.735091,-3.96871 0.237086,-0.55092 0.474537,-1.10193 0.712329,-1.65307 0.19388,-0.41852 0.388134,-0.83712 0.582775,-1.25584 0.657323,0.17199 1.314977,0.34384 1.972993,0.51557 0.126078,0.36535 0.252506,0.73055 0.379291,1.09563 -0.104777,0.0921 -0.209196,0.18412 -0.313267,0.27599 -0.120014,-0.35901 -0.239675,-0.71814 -0.358986,-1.07739 -0.298662,0.27164 -0.596961,0.54315 -0.894916,0.81454 -0.221301,0.0804 -0.442239,0.16067 -0.66283,0.24082 -0.237094,-0.1721 -0.473834,-0.3443 -0.710225,-0.51663" />
      <ellipse
         style="opacity:1;fill:#000000;stroke:#000000;stroke-width:0.165"
         id="ellipse981"
         cx="80.19397"
         cy="135.13606"
         rx="0.41964671"
         ry="0.39385101" />
      <path
         style="fill:none;stroke:#000000;stroke-width:0.264583px;stroke-linecap:butt;stroke-linejoin:miter;stroke-opacity:1"
         d="m 84.092403,126.18022 c -0.419077,0.6822 -0.838111,1.36433 -1.006491,1.91568 -0.168381,0.55135 -0.08622,0.97168 -0.0041,1.39171"
         id="path983"
         inkscape:path-effect="#path-effect985"
         inkscape:original-d="m 84.092403,126.18022 c -0.418766,0.68239 -0.8378,1.36452 -1.257096,2.04638 0.08243,0.42061 0.164592,0.84094 0.246489,1.26101" />
      <ellipse
         style="opacity:1;fill:#000000;stroke:#000000;stroke-width:0.165"
         id="path987"
         cx="102.60093"
         cy="136.34268"
         rx="0.52995449"
         ry="0.66369033" />
      <ellipse
         style="opacity:1;fill:#000000;stroke:#000000;stroke-width:0.165"
         id="path989"
         cx="112.12775"
         cy="137.09486"
         rx="1.2817428"
         ry="0.64157212" />
      <ellipse
         style="opacity:1;fill:#000000;stroke:#000000;stroke-width:0.165"
         id="path991"
         cx="111.51152"
         cy="130.46901"
         rx="0.66551864"
         ry="0.74112427" />
      <ellipse
         style="opacity:1;fill:#000000;stroke:#000000;stroke-width:0.165"
         id="path993"
         cx="93.542442"
         cy="129.53984"
         rx="2.1691039"
         ry="0.98447639" />
      <ellipse
         style="opacity:1;fill:#000000;stroke:#000000;stroke-width:0.165"
         id="path995"
         cx="97.757408"
         cy="138.54391"
         rx="0.54227954"
         ry="1.4711807" />
      <ellipse
         style="opacity:1;fill:#000000;stroke:#000000;stroke-width:0.165"
         id="path999"
         cx="99.593758"
         cy="146.80688"
         rx="0.65319932"
         ry="0.92916644" />
      <ellipse
         style="opacity:1;fill:#000000;stroke:#000000;stroke-width:0.165"
         id="path1001"
         cx="115.20886"
         cy="143.67647"
         rx="0.73946899"
         ry="1.0287186" />
      <ellipse
         style="opacity:1;fill:#000000;stroke:#000000;stroke-width:0.165"
         id="path1003"
         cx="105.73135"
         cy="142.1721"
         rx="1.1461729"
         ry="1.0287243" />
      <ellipse
         style="opacity:1;fill:#000000;stroke:#000000;stroke-width:0.165"
         id="path1005"
         cx="104.5975"
         cy="129.62834"
         rx="0.97363353"
         ry="0.63050437" />
      <ellipse
         style="opacity:1;fill:#000000;stroke:#000000;stroke-width:0.165"
         id="path1007"
         cx="118.85692"
         cy="133.1459"
         rx="1.059909"
         ry="0.56413245" />
      <ellipse
         style="opacity:1;fill:#000000;stroke:#000000;stroke-width:0.165"
         id="path1009"
         cx="121.66689"
         cy="145.70073"
         rx="1.4049934"
         ry="1.1282707" />
      <ellipse
         style="opacity:1;fill:#000000;stroke:#000000;stroke-width:0.165"
         id="path1011"
         cx="128.77811"
         cy="136.17674"
         rx="1.1708231"
         ry="1.3605666" />
      <ellipse
         style="opacity:1;fill:#000000;stroke:#000000;stroke-width:0.165"
         id="path1013"
         cx="135.29776"
         cy="138.93324"
         rx="0.76411915"
         ry="2.6437051" />
      <ellipse
         style="opacity:1;fill:#000000;stroke:#000000;stroke-width:0.165"
         id="path1015"
         cx="123.88529"
         cy="152.66948"
         rx="1.0106088"
         ry="0.50882828" />
      <ellipse
         style="opacity:1;fill:#000000;stroke:#000000;stroke-width:0.165"
         id="path1017"
         cx="126.04208"
         cy="157.27109"
         rx="1.318718"
         ry="1.2167666" />
      <ellipse
         style="opacity:1;fill:#000000;stroke:#000000;stroke-width:0.165"
         id="path1019"
         cx="132.99309"
         cy="162.61378"
         rx="1.1215286"
         ry="0.82960856" />
      <ellipse
         style="opacity:1;fill:#000000;stroke:#000000;stroke-width:0.165"
         id="path1021"
         cx="131.89621"
         cy="158.32193"
         rx="0.66551864"
         ry="0.63050437" />
      <ellipse
         style="opacity:1;fill:#000000;stroke:#000000;stroke-width:0.165"
         id="path1023"
         cx="94.109367"
         cy="149.50589"
         rx="0.44367906"
         ry="0.44246212" />
      <ellipse
         style="opacity:1;fill:#000000;stroke:#000000;stroke-width:0.165"
         id="path1025"
         cx="99.359589"
         cy="151.33104"
         rx="0.96130848"
         ry="0.49776632" />
      <ellipse
         style="opacity:1;fill:#000000;stroke:#000000;stroke-width:0.165"
         id="path1027"
         cx="110.48859"
         cy="143.53267"
         rx="0.97363353"
         ry="1.2167666" />
      <ellipse
         style="opacity:1;fill:#000000;stroke:#000000;stroke-width:0.165"
         id="path1029"
         cx="119.52243"
         cy="138.44437"
         rx="1.5035881"
         ry="1.3052567" />
      <ellipse
         style="opacity:1;fill:#000000;stroke:#000000;stroke-width:0.165"
         id="path1031"
         cx="115.35677"
         cy="126.69704"
         rx="0.76411331"
         ry="0.79642838" />
      <ellipse
         style="opacity:1;fill:#000000;stroke:#000000;stroke-width:0.165"
         id="path1033"
         cx="119.00481"
         cy="128.79872"
         rx="1.0599031"
         ry="0.73006225" />
      <ellipse
         style="opacity:1;fill:#000000;stroke:#000000;stroke-width:0.165"
         id="path1035"
         cx="108.073"
         cy="133.90915"
         rx="0.94898921"
         ry="0.70793831" />
      <ellipse
         style="opacity:1;fill:#000000;stroke:#000000;stroke-width:0.165"
         id="path1037"
         cx="107.44445"
         cy="138.22313"
         rx="1.3063986"
         ry="0.84067631" />
      <ellipse
         style="opacity:1;fill:#000000;stroke:#000000;stroke-width:0.165"
         id="path1039"
         cx="92.026527"
         cy="135.75642"
         rx="1.0722283"
         ry="0.85173827" />
      <ellipse
         style="opacity:1;fill:#000000;stroke:#000000;stroke-width:0.165"
         id="path1041"
         cx="97.289085"
         cy="132.99104"
         rx="0.78876919"
         ry="0.58626217" />
      <ellipse
         style="opacity:1;fill:#000000;stroke:#000000;stroke-width:0.165"
         id="path1043"
         cx="100.3209"
         cy="129.62834"
         rx="0.91201401"
         ry="0.69687629" />
      <ellipse
         style="opacity:1;fill:#000000;stroke:#000000;stroke-width:0.165"
         id="path1045"
         cx="104.19079"
         cy="147.14978"
         rx="1.331043"
         ry="0.45352411" />
      <ellipse
         style="opacity:1;fill:#000000;stroke:#000000;stroke-width:0.165"
         id="path1047"
         cx="101.91076"
         cy="141.65221"
         rx="0.82573861"
         ry="0.97341442" />
      <ellipse
         style="opacity:1;fill:#000000;stroke:#000000;stroke-width:0.165"
         id="path1049"
         cx="96.47567"
         cy="143.5769"
         rx="0.69016868"
         ry="0.66369033" />
      <ellipse
         style="opacity:1;fill:#000000;stroke:#000000;stroke-width:0.165"
         id="path1051"
         cx="117.26706"
         cy="148.85326"
         rx="0.67784947"
         ry="0.32078606" />
      <ellipse
         style="opacity:1;fill:#000000;stroke:#000000;stroke-width:0.165"
         id="path1053"
         cx="122.75143"
         cy="149.6165"
         rx="1.1092035"
         ry="0.81855232" />
      <ellipse
         style="opacity:1;fill:#000000;stroke:#000000;stroke-width:0.165"
         id="path1055"
         cx="123.70042"
         cy="141.45311"
         rx="0.89968318"
         ry="0.73005646" />
      <ellipse
         style="opacity:1;fill:#000000;stroke:#000000;stroke-width:0.165"
         id="path1057"
         cx="134.12692"
         cy="169.51619"
         rx="0.85038871"
         ry="0.69687629" />
      <ellipse
         style="opacity:1;fill:#000000;stroke:#000000;stroke-width:0.165"
         id="path1059"
         cx="134.64456"
         cy="165.69995"
         rx="0.52995449"
         ry="0.48670432" />
      <ellipse
         style="opacity:1;fill:#000000;stroke:#000000;stroke-width:0.165"
         id="path1061"
         cx="134.86641"
         cy="173.22179"
         rx="0.89968318"
         ry="0.53095227" />
      <ellipse
         style="opacity:1;fill:#000000;stroke:#000000;stroke-width:0.165"
         id="path1063"
         cx="128.74113"
         cy="155.40167"
         rx="0.93665838"
         ry="0.40927616" />
      <ellipse
         style="opacity:1;fill:#000000;stroke:#000000;stroke-width:0.165"
         id="path1065"
         cx="126.73224"
         cy="148.65414"
         rx="0.97363353"
         ry="0.85173827" />
      <ellipse
         style="opacity:1;fill:#000000;stroke:#000000;stroke-width:0.165"
         id="path1067"
         cx="121.64224"
         cy="155.25789"
         rx="1.0599031"
         ry="0.6415664" />
      <ellipse
         style="opacity:1;fill:#000000;stroke:#000000;stroke-width:0.165"
         id="path1069"
         cx="126.0544"
         cy="132.52646"
         rx="0.69016868"
         ry="0.69687629" />
      <ellipse
         style="opacity:1;fill:#000000;stroke:#000000;stroke-width:0.165"
         id="path1071"
         cx="88.908447"
         cy="122.83656"
         rx="1.2324483"
         ry="0.63050437" />
      <ellipse
         style="opacity:1;fill:#000000;stroke:#000000;stroke-width:0.165"
         id="path1073"
         cx="83.436371"
         cy="122.90294"
         rx="0.93665838"
         ry="0.38715798" />
      <ellipse
         style="opacity:1;fill:#000000;stroke:#000000;stroke-width:0.165"
         id="path1075"
         cx="80.244331"
         cy="124.80552"
         rx="0.72714394"
         ry="0.54201424" />
      <ellipse
         style="opacity:1;fill:#000000;stroke:#000000;stroke-width:0.165"
         id="path1077"
         cx="91.632149"
         cy="125.11523"
         rx="0.92433333"
         ry="0.65263408" />
      <path
         style="fill:#008000;stroke:#000000;stroke-width:0.264583px;stroke-linecap:butt;stroke-linejoin:miter;stroke-opacity:1"
         d="m 86.319806,143.35175 c -0.342912,1.04319 -0.68577,2.08621 -0.849728,3.33196 -0.163958,1.24576 -0.149072,2.6941 0.200145,4.4204 0.349216,1.72629 1.032625,3.73038 1.863104,5.39512 0.830478,1.66474 1.80786,2.99003 2.812606,4.14789 1.004745,1.15786 2.036735,2.14824 2.661531,2.55417 0.624796,0.40594 0.842614,0.22768 1.09851,-0.55119 0.255896,-0.77887 0.549921,-2.1585 0.584913,-3.113 0.03499,-0.9545 -0.189228,-1.48393 -0.462736,-2.15056 -0.273507,-0.66663 -0.596279,-1.47042 -0.962398,-2.30646 -0.366119,-0.83604 -0.775584,-1.70428 -1.218655,-2.6554 -0.44307,-0.95113 -0.919718,-1.98509 -1.221073,-2.72778 -0.301354,-0.74269 -0.427343,-1.19407 0.147338,-2.16544 0.574681,-0.97136 1.850095,-2.46235 3.125551,-3.95339"
         id="path1157"
         inkscape:path-effect="#path-effect1159"
         inkscape:original-d="m 86.319806,143.35175 c -0.342593,1.04329 -0.685453,2.08631 -1.028576,3.12907 0.01516,1.44865 0.03004,2.89699 0.04466,4.34508 0.683704,2.00445 1.367115,4.00854 2.050277,6.01242 0.977686,1.32561 1.955065,2.65091 2.932203,3.97597 1.032298,0.9907 2.064292,1.98108 3.09604,2.97122 0.218091,-0.17799 0.435906,-0.35625 0.653463,-0.53478 0.294304,-1.37943 0.58833,-2.75906 0.882099,-4.139 -0.223964,-0.52918 -0.448183,-1.05861 -0.672671,-1.58831 -0.322522,-0.80356 -0.645292,-1.60735 -0.968335,-2.41142 -0.409218,-0.86801 -0.818682,-1.73625 -1.228421,-2.60477 -0.476401,-1.03373 -0.953048,-2.06769 -1.429967,-3.10193 -0.12573,-0.45114 -0.251719,-0.90252 -0.377976,-1.35418 1.275726,-1.49078 2.551139,-2.98177 3.826312,-4.47305" />
      <ellipse
         style="opacity:1;fill:#000000;stroke:#000000;stroke-width:0.165"
         id="path1079"
         cx="87.146042"
         cy="145.45737"
         rx="0.94898629"
         ry="0.48671007" />
      <ellipse
         style="opacity:1;fill:#000000;stroke:#000000;stroke-width:0.165"
         id="path1081"
         cx="90.48597"
         cy="141.85132"
         rx="0.91201115"
         ry="0.68581432" />
      <ellipse
         style="opacity:1;fill:#000000;stroke:#000000;stroke-width:0.165"
         id="path1083"
         cx="89.364449"
         cy="150.32445"
         rx="0.99828368"
         ry="0.39821419" />
      <ellipse
         style="opacity:1;fill:#000000;stroke:#000000;stroke-width:0.165"
         id="path1085"
         cx="90.498306"
         cy="144.7605"
         rx="0.82573861"
         ry="0.56413823" />
      <ellipse
         style="opacity:1;fill:#000000;stroke:#000000;stroke-width:0.165"
         id="path1087"
         cx="88.279892"
         cy="154.37296"
         rx="1.4912629"
         ry="0.68581432" />
      <ellipse
         style="opacity:1;fill:#000000;stroke:#000000;stroke-width:0.165"
         id="path1089"
         cx="92.642754"
         cy="156.89497"
         rx="0.87503594"
         ry="1.1725187" />
      <ellipse
         style="opacity:1;fill:#000000;stroke:#000000;stroke-width:0.165"
         id="path1091"
         cx="90.239487"
         cy="159.10727"
         rx="0.93665838"
         ry="0.55307621" />
      <ellipse
         style="opacity:1;fill:#000000;stroke:#000000;stroke-width:0.165"
         id="path1093"
         cx="93.098755"
         cy="160.72226"
         rx="0.46832919"
         ry="0.044242177" />
      <ellipse
         style="opacity:1;fill:#000000;stroke:#000000;stroke-width:0.165"
         id="path1095"
         cx="107.18563"
         cy="153.22256"
         rx="1.2694235"
         ry="0.30972406" />
      <ellipse
         style="opacity:1;fill:#000000;stroke:#000000;stroke-width:0.165"
         id="path1097"
         cx="108.46738"
         cy="149.92622"
         rx="0.55460465"
         ry="0.81855232" />
      <ellipse
         style="opacity:1;fill:#000000;stroke:#000000;stroke-width:0.165"
         id="path1099"
         cx="111.14179"
         cy="154.11855"
         rx="0.46832919"
         ry="0.89598048" />
      <ellipse
         style="opacity:1;fill:#000000;stroke:#000000;stroke-width:0.165"
         id="path1101"
         cx="114.16128"
         cy="155.6561"
         rx="0.70249379"
         ry="0.50882828" />
      <ellipse
         style="opacity:1;fill:#000000;stroke:#000000;stroke-width:0.165"
         id="path1103"
         cx="111.72105"
         cy="157.09409"
         rx="0.57924896"
         ry="0.55307621" />
      <ellipse
         style="opacity:1;fill:#000000;stroke:#000000;stroke-width:0.165"
         id="path1105"
         cx="114.568"
         cy="158.32193"
         rx="0.71481884"
         ry="0.47564808" />
      <ellipse
         style="opacity:1;fill:#000000;stroke:#000000;stroke-width:0.165"
         id="path1107"
         cx="79.763687"
         cy="162.41469"
         rx="0.98595572"
         ry="0.54201424" />
      <ellipse
         style="opacity:1;fill:#000000;stroke:#000000;stroke-width:0.165"
         id="path1109"
         cx="78.161499"
         cy="158.78651"
         rx="0.73946899"
         ry="0.54201424" />
      <ellipse
         style="opacity:1;fill:#000000;stroke:#000000;stroke-width:0.165"
         id="path1111"
         cx="77.705498"
         cy="154.00792"
         rx="1.0722312"
         ry="1.4490626" />
      <ellipse
         style="opacity:1;fill:#000000;stroke:#000000;stroke-width:0.165"
         id="path1113"
         cx="77.915009"
         cy="148.36656"
         rx="0.6655215"
         ry="0.74112427" />
      <ellipse
         style="opacity:1;fill:#000000;stroke:#000000;stroke-width:0.165"
         id="path1115"
         cx="80.823586"
         cy="146.23169"
         rx="0.59157401"
         ry="0.55307621" />
      <ellipse
         style="opacity:1;fill:#000000;stroke:#000000;stroke-width:0.165"
         id="path1117"
         cx="76.054016"
         cy="150.56779"
         rx="0.70249379"
         ry="0.39821419" />
      <ellipse
         style="opacity:1;fill:#000000;stroke:#000000;stroke-width:0.165"
         id="path1119"
         cx="79.591141"
         cy="148.54353"
         rx="0.69016868"
         ry="0.32078606" />
      <ellipse
         style="opacity:1;fill:#000000;stroke:#000000;stroke-width:0.165"
         id="path1121"
         cx="80.268982"
         cy="159.48338"
         rx="0.65319645"
         ry="0.39821994" />
      <ellipse
         style="opacity:1;fill:#000000;stroke:#000000;stroke-width:0.165"
         id="path1123"
         cx="81.735596"
         cy="164.5938"
         rx="0.39438459"
         ry="0.24335216" />
      <ellipse
         style="opacity:1;fill:#000000;stroke:#000000;stroke-width:0.165"
         id="path1125"
         cx="76.152611"
         cy="130.84511"
         rx="0.52995157"
         ry="0.2986621" />
      <ellipse
         style="opacity:1;fill:#000000;stroke:#000000;stroke-width:0.165"
         id="path1127"
         cx="78.210793"
         cy="129.14163"
         rx="0.96130848"
         ry="0.47564235" />
      <ellipse
         style="opacity:1;fill:#000000;stroke:#000000;stroke-width:0.165"
         id="path1129"
         cx="78.481934"
         cy="132.53752"
         rx="0.64087427"
         ry="0.24335216" />
      <ellipse
         style="opacity:1;fill:#000000;stroke:#000000;stroke-width:0.165"
         id="path1131"
         cx="80.515472"
         cy="129.7832"
         rx="0.65319645"
         ry="0.055309929" />
      <ellipse
         style="opacity:1;fill:#000000;stroke:#000000;stroke-width:0.165"
         id="path1133"
         cx="80.798935"
         cy="131.74109"
         rx="0.49297932"
         ry="0.088490129" />
      <ellipse
         style="opacity:1;fill:#000000;stroke:#000000;stroke-width:0.165"
         id="path1135"
         cx="75.265251"
         cy="127.50453"
         rx="0.92433625"
         ry="0.38715219" />
      <ellipse
         style="opacity:1;fill:#000000;stroke:#000000;stroke-width:0.165"
         id="path1137"
         cx="83.288483"
         cy="137.64795"
         rx="0.86271381"
         ry="0.66369611" />
      <ellipse
         style="opacity:1;fill:#000000;stroke:#000000;stroke-width:0.165"
         id="path1139"
         cx="114.88842"
         cy="133.61049"
         rx="0.69016868"
         ry="0.34291002" />
      <ellipse
         style="opacity:1;fill:#000000;stroke:#000000;stroke-width:0.165"
         id="path1141"
         cx="115.38141"
         cy="130.14824"
         rx="1.0106088"
         ry="0.68581432" />
      <ellipse
         style="opacity:1;fill:#000000;stroke:#000000;stroke-width:0.165"
         id="path1143"
         cx="111.20341"
         cy="126.53111"
         rx="0.57924896"
         ry="0.51989031" />
      <ellipse
         style="opacity:1;fill:#000000;stroke:#000000;stroke-width:0.165"
         id="path1145"
         cx="117.42727"
         cy="124.81658"
         rx="0.64087427"
         ry="0.5752002" />
      <ellipse
         style="opacity:1;fill:#000000;stroke:#000000;stroke-width:0.165"
         id="path1147"
         cx="118.0435"
         cy="142.23848"
         rx="1.0599031"
         ry="0.63050437" />
      <ellipse
         style="opacity:1;fill:#000000;stroke:#000000;stroke-width:0.165"
         id="path1149"
         cx="96.759125"
         cy="148.60991"
         rx="0.97363353"
         ry="0.16592403" />
      <ellipse
         style="opacity:1;fill:#000000;stroke:#000000;stroke-width:0.165"
         id="path1151"
         cx="103.95662"
         cy="131.77428"
         rx="0.97363353"
         ry="0.65262836" />
    </g>
  </g>
</svg>
